<svg width="1300" height="1300" viewBox="0 0 1300 1300" fill="none" xmlns="http://www.w3.org/2000/svg">
<rect x="16.5" y="16.5" width="1267" height="1267" rx="633.5" fill="black"/>
<rect x="16.5" y="16.5" width="1267" height="1267" rx="633.5" stroke="white" stroke-width="33"/>
<path d="M237.605 767L287.5 652.448L237.605 533.9H513.662C541.412 533.9 565.499 538.562 585.923 547.886C606.569 557.21 622.442 570.419 633.542 587.513C644.864 604.607 650.525 624.92 650.525 648.452V652.448C650.525 675.98 644.864 696.293 633.542 713.387C622.442 730.481 606.569 743.69 585.923 753.014C565.499 762.338 541.412 767 513.662 767H237.605ZM340.835 691.742H503.672C515.438 691.742 524.873 688.301 531.977 681.419C539.081 674.315 542.633 664.658 542.633 652.448V648.452C542.633 636.242 539.081 626.696 531.977 619.814C524.873 612.71 515.438 609.158 503.672 609.158H340.835V652.448V691.742Z" fill="white"/>
<path d="M679.545 767V533.9H782.775V627.806L931.626 533.9H1082.48L921.303 632.801L1092.47 767H950.274L843.048 679.754L782.775 716.717V767H679.545Z" fill="white"/>
<path d="M1095.94 463.094L1133.11 444.687L1131.11 510.423L1092.5 530L1095.94 463.094Z" fill="#FF0000"/>
<rect x="238.02" y="841.802" width="36.7775" height="853.877" transform="rotate(-90.0301 238.02 841.802)" fill="#FF0000"/>
</svg>
